<svg width="53" height="52" viewBox="0 0 53 52" fill="none" xmlns="http://www.w3.org/2000/svg">
<path d="M19.206 10.6332C25.9977 10.0428 32.8279 10.0428 39.6196 10.6332L42.8917 10.9177C45.07 11.107 46.9357 12.4063 47.9024 14.2648C48.026 14.5026 47.9333 14.7905 47.7055 14.9315L34.1292 23.3359C31.2175 25.1383 27.546 25.1762 24.5978 23.434L10.9309 15.3581C10.7101 15.2276 10.6087 14.959 10.7082 14.7227C11.5926 12.6219 13.5808 11.1222 15.9338 10.9177L19.206 10.6332Z" fill="black"/>
<path d="M10.6971 18.995C10.3592 18.7953 9.928 19.0102 9.88861 19.4007C9.33885 24.8512 9.47191 30.3534 10.2878 35.7789C10.7179 38.6392 13.0523 40.8319 15.9338 41.0824L19.206 41.3669C25.9977 41.9573 32.8279 41.9573 39.6196 41.3669L42.8918 41.0824C45.7733 40.8319 48.1077 38.6392 48.5378 35.7789C49.3774 30.1953 49.4939 24.5305 48.8872 18.9243C48.8446 18.531 48.4061 18.3201 48.0698 18.5283L35.8399 26.0992C31.9005 28.5379 26.9332 28.589 22.9445 26.232L10.6971 18.995Z" fill="black"/>
</svg>
