<svg width="37" height="38" viewBox="0 0 37 38" fill="none" xmlns="http://www.w3.org/2000/svg">
<path d="M28.4776 1.05208C27.9366 1.59207 27.9366 2.48043 28.4776 3.03783L34.4288 8.97766C34.9698 9.53507 35.8773 9.53507 36.4183 8.97766C36.9593 8.43768 36.9593 7.54932 36.4183 7.00933L30.4672 1.05208C29.9262 0.512099 29.0012 0.512099 28.4776 1.05208ZM8.98377 28.4345C14.0274 33.4686 20.153 37.353 25.1618 37.353C27.4131 37.353 29.3851 36.5691 30.9733 34.8272C31.8982 33.7995 32.4741 32.5976 32.4741 31.4131C32.4741 30.5422 32.1426 29.7061 31.3223 29.1139L25.9646 25.3165C25.1443 24.7591 24.4637 24.4804 23.8354 24.4804C23.0501 24.4804 22.3345 24.9333 21.5317 25.7172L20.2927 26.9365C20.1007 27.1281 19.8564 27.2152 19.6295 27.2152C19.3677 27.2152 19.1059 27.1107 18.9314 27.0236C17.8494 26.4488 15.9995 24.8637 14.2717 23.1566C12.5614 21.4496 10.9733 19.6032 10.4148 18.5232C10.3276 18.3316 10.2229 18.0877 10.2229 17.8264C10.2229 17.6 10.2927 17.3736 10.4846 17.1819L11.7237 15.9104C12.4916 15.1091 12.9628 14.4123 12.9628 13.6111C12.9628 12.984 12.6661 12.3047 12.0902 11.486L8.33805 6.20806C7.72723 5.37196 6.87208 5.00616 5.92967 5.00616C4.77784 5.00616 3.59111 5.52873 2.56144 6.5216C0.868599 8.14156 0.118164 10.1447 0.118164 12.3569C0.118164 17.3561 3.94015 23.4179 8.98377 28.4345ZM26.7499 10.7195C27.6923 11.6079 29.1932 11.6253 30.1181 10.6847C31.0431 9.76151 31.0431 8.26349 30.1181 7.34029C29.1932 6.39967 27.6748 6.39967 26.7499 7.32287C25.8075 8.26349 25.8075 9.74409 26.7499 10.7195ZM20.4672 9.02992C19.9262 9.5699 19.9262 10.4757 20.4672 11.0157L26.4183 16.9729C26.9593 17.5129 27.8668 17.5129 28.4078 16.9729C28.9488 16.4329 28.9488 15.5272 28.4078 14.9872L22.4392 9.02992C21.8982 8.48993 21.0082 8.48993 20.4672 9.02992ZM18.7394 18.68C19.6818 19.6206 21.1827 19.6206 22.1251 18.68C23.0675 17.7393 23.0675 16.2413 22.1251 15.3355C21.1827 14.3775 19.6818 14.3775 18.7394 15.3007C17.8145 16.2413 17.8145 17.7393 18.7394 18.68Z" fill="#333333"/>
</svg>
