<svg width="45" height="46" viewBox="0 0 45 46" fill="none" xmlns="http://www.w3.org/2000/svg">
<path d="M22.2345 16.9939C18.9174 16.9939 16.2284 19.683 16.2284 23.0001C16.2284 26.3172 18.9174 29.0063 22.2345 29.0063C25.5517 29.0063 28.2407 26.3172 28.2407 23.0001C28.2407 19.683 25.5517 16.9939 22.2345 16.9939Z" fill="#212121"/>
<path fill-rule="evenodd" clip-rule="evenodd" d="M12.5684 6.51816C18.9407 5.80596 25.5284 5.80596 31.9008 6.51816C35.4091 6.91027 38.2388 9.67455 38.6506 13.1952C39.4125 19.7096 39.4125 26.2906 38.6506 32.805C38.2388 36.3256 35.4091 39.0899 31.9008 39.482C25.5284 40.1942 18.9407 40.1942 12.5684 39.482C9.06001 39.0899 6.23028 36.3256 5.81851 32.805C5.05659 26.2906 5.05659 19.7096 5.81851 13.1952C6.23028 9.67455 9.06001 6.91027 12.5684 6.51816ZM31.4748 11.9118C30.4542 11.9118 29.6268 12.7392 29.6268 13.7598C29.6268 14.7805 30.4542 15.6079 31.4748 15.6079C32.4955 15.6079 33.3229 14.7805 33.3229 13.7598C33.3229 12.7392 32.4955 11.9118 31.4748 11.9118ZM13.4563 23.0001C13.4563 18.152 17.3864 14.2218 22.2345 14.2218C27.0826 14.2218 31.0128 18.152 31.0128 23.0001C31.0128 27.8482 27.0826 31.7784 22.2345 31.7784C17.3864 31.7784 13.4563 27.8482 13.4563 23.0001Z" fill="#212121"/>
</svg>
