<svg width="56" height="56" viewBox="0 0 56 56" fill="none" xmlns="http://www.w3.org/2000/svg">
<rect width="56" height="56" rx="28" fill="#E5EA00"/>
<path d="M28.5766 31.0701C28.7446 32.3354 28.3424 33.662 27.3701 34.6343L23.5814 38.423C21.9232 40.0811 19.2348 40.0811 17.5766 38.423C15.9185 36.7648 15.9185 34.0764 17.5766 32.4182L21.3653 28.6295C22.3376 27.6572 23.6642 27.255 24.9295 27.423M27.4227 24.9297C27.2548 23.6644 27.657 22.3379 28.6293 21.3656L32.418 17.5769C34.0761 15.9187 36.7645 15.9187 38.4227 17.5769C40.0809 19.235 40.0809 21.9235 38.4227 23.5816L34.634 27.3703C33.6617 28.3426 32.3352 28.7448 31.0698 28.5768M24.9295 31.0701L31.0698 24.9297" stroke="#212121" stroke-width="1.3" stroke-linecap="square"/>
</svg>
